<?xml version="1.0" encoding="UTF-8"?>
<svg version="1.1" viewBox="0 0 700 700" xmlns="http://www.w3.org/2000/svg" xmlns:xlink="http://www.w3.org/1999/xlink">
 <g>
  <path d="m134.64 521.3c-7.543 0-14.426-2.5586-18.898-7.0273-9.5039-9.5156-10.227-30.07 3.0352-43.332l150.38-150.38 40.297 40.297-150.39 150.38c-6.3867 6.3945-15.297 10.062-24.43 10.062zm134.52-192.82-146.42 146.43c-10.824 10.824-10.516 27.922-3.0352 35.414 3.4258 3.4219 8.875 5.3867 14.941 5.3867 7.6562 0 15.121-3.0703 20.473-8.4219l146.42-146.42zm37.172 18.273-23.066-23.066 102.29-94.832c1.4297-1.5391 2.2344-3.5117 2.3203-5.6289-14.707-27.113-3.0078-66.832 29.281-99.121l100.26-85.398 11.121 11.109-95.359 90.422c-1.0352 1.043-1.6367 2.4883-1.6367 4.0312 0 1.5469 0.59766 2.9922 1.6914 4.0781 2.1797 2.1914 5.9805 2.1836 8.1602 0.003906l96.531-89.129 11.133 11.129-91.574 94.039c-1.1133 1.1133-1.7188 2.5664-1.7188 4.1055 0 1.5391 0.59766 2.9922 1.6914 4.0781 2.1797 2.1914 5.9805 2.1836 8.1602 0.003906l94.07-91.605 11.129 11.137-89.055 96.449c-1.1641 1.1719-1.7656 2.6211-1.7656 4.1602 0 1.5391 0.59766 2.9922 1.6914 4.0781 2.1797 2.1914 5.9805 2.1836 8.1602 0.003907l90.363-95.312 11.117 11.121-85.25 100.1c-22.727 22.734-49.359 35.676-73.238 35.676-9.6484 0-18.395-2.0938-26.02-6.2148-2.2852 0.125-4.2266 0.95703-5.7227 2.3789l-0.11719 0.13281zm-14.996-22.914 14.84 14.84 90.793-97.945c2.7031-2.6953 6.3242-4.1836 10.176-4.1836h0.73438l1.0039 0.35938c6.9219 3.8984 14.984 5.875 23.945 5.875 22.406 0 47.602-12.348 69.125-33.875l81.75-96-3.3945-3.3945-86.453 91.191c-4.4062 4.4023-11.844 4.3438-16.133 0.050781-2.1523-2.1406-3.332-4.9961-3.332-8.0352 0-3.0352 1.1797-5.8984 3.332-8.043l85.32-92.422-3.4141-3.4219-90.082 87.723c-4.2461 4.2461-11.766 4.2656-16.051-0.035156-2.1523-2.1406-3.332-4.9961-3.332-8.0352 0-3.0352 1.1797-5.8984 3.332-8.043l87.695-90.047-3.4219-3.4141-92.504 85.398c-4.1328 4.1445-11.711 4.2188-15.992-0.085938-2.1523-2.1406-3.332-4.9961-3.332-8.0352 0-3.0352 1.1797-5.8984 3.332-8.043l91.23-86.5-3.3984-3.3945-96.156 81.902c-30.594 30.605-41.848 68.008-27.844 92.922l0.33984 0.59766 0.023438 0.68359c0.11719 4.0273-1.3672 7.8008-4.1836 10.617l-0.39062 0.35156z"/>
 </g>
</svg>
