<?xml version="1.0" encoding="UTF-8"?>
<svg version="1.1" viewBox="75 20 550 520" xmlns="http://www.w3.org/2000/svg" xmlns:xlink="http://www.w3.org/1999/xlink">
 <g>
  <path d="m137.92 520.8c-8.4336 0-16.09-2.8164-21.004-7.7344-10.152-10.152-11.273-32.66 2.5156-46.453l160.16-160.16 43.938 43.938-160.16 160.16c-6.5117 6.5156-15.785 10.25-25.445 10.25zm141.66-206.42-156.19 156.19c-11.363 11.367-10.668 30.379-2.5156 38.535 3.8203 3.8125 10.188 6.0898 17.047 6.0898 8.1797 0 16.012-3.1406 21.488-8.6055l156.2-156.2zm38.836 21.414-24.238-24.238 109.08-101.18c2.4375-2.5859 3.2031-6.2656 2.0117-9.6719-15.508-28.824-3.4961-67.641 32.301-103.43 34.191-34.195 81.027-58.082 113.91-58.082 12.492 0 22.277 3.4375 29.055 10.227 12.641 12.633 13.66 35.797 2.8828 65.211-9.9531 27.156-28.43 55.5-50.715 77.785-25.406 25.406-51.801 38.84-76.316 38.84-9.9336 0-19.188-2.2578-27.492-6.707-0.63672-0.19531-1.7266-0.375-2.8164-0.375-2.4453 0-4.7422 0.91406-6.5078 2.5742l-0.15625 0.17969zm-16.16-24.086 16.012 16.012 97.141-104.74c4.0703-4.0664 10.293-5.4531 15.742-3.543 7.875 4.1836 16.234 6.2148 25.238 6.2148 23 0 48.02-12.863 72.359-37.199 21.402-21.402 39.871-49.723 49.41-75.75 9.8438-26.859 9.2617-48.48-1.5781-59.328-5.707-5.6836-14.141-8.5742-25.102-8.5742-31 0-77.246 23.738-109.95 56.441-33.953 33.945-45.602 70.293-31.152 97.223 2.1211 5.9531 0.75781 11.977-3.3828 16.105l-0.55469 0.42578z"/>
 </g>
</svg>
