<?xml version="1.0" encoding="utf-8"?>
<svg height="100%" width="100%" viewBox="10 -70 700 700" xmlns="http://www.w3.org/2000/svg">
  <g>
    <path d="m137.95 251.98v246.42c0 3.0938 2.5078 5.6016 5.6016 5.6016h412.89c3.0938 0 5.6016-2.5078 5.6016-5.6016v-246.45c7.3203-6.7305 11.941-16.352 11.941-27.059 0-0.27344-0.019531-0.55078-0.058593-0.82031l-11.18-75.484-0.003906-60.555c0-3.0938-2.5078-5.6016-5.6016-5.6016l-123.77 0.003906c-16.574-16.359-48.188-26.438-83.391-26.438-35.207 0-66.812 10.078-83.391 26.438h-123.77c-3.0938 0-5.6016 2.5078-5.6016 5.6016v60.719l-11.18 75.316c-0.039063 0.27344-0.058594 0.54688-0.058594 0.82422 0 10.715 4.6328 20.348 11.965 27.078zm11.203 7.0742c4.2227 1.6914 8.8164 2.6484 13.633 2.6484 13.16 0 24.691-6.9648 31.199-17.379 6.5078 10.414 18.039 17.379 31.199 17.379s24.691-6.9648 31.199-17.379c3.5391 5.668 8.5625 10.301 14.543 13.352v235.13h-121.77zm101.63-104.35v70.195c0 14.117-11.484 25.602-25.598 25.602s-25.598-11.484-25.598-25.602l-0.003906-70.195zm249.6 70.199c0 14.117-11.484 25.602-25.602 25.602-14.113 0-25.598-11.484-25.598-25.602v-70.199h51.199zm-62.398 0c0 14.117-11.484 25.602-25.598 25.602s-25.598-11.484-25.598-25.602l-0.003907-70.199h51.199zm-62.398 0c0 14.117-11.484 25.602-25.602 25.602-14.113 0-25.598-11.484-25.598-25.602l-0.003906-70.199h51.199zm-62.402 0c0 14.117-11.484 25.602-25.598 25.602-14.117 0-25.602-11.484-25.602-25.602l-0.003906-70.199h51.199zm-31.059 267.9v-106.95h268.71v106.95zm268.71-118.15h-57.945v-22.477h30.895c3.0938 0 5.6016-2.5078 5.6016-5.6016s-2.5078-5.6016-5.6016-5.6016l-72.988 0.003906c-3.0938 0-5.6016 2.5078-5.6016 5.6016s2.5078 5.6016 5.6016 5.6016h30.895v22.477l-129.11-0.003906v-22.477h30.895c3.0938 0 5.6016-2.5078 5.6016-5.6016s-2.5078-5.6016-5.6016-5.6016l-72.988 0.003906c-3.0938 0-5.6016 2.5078-5.6016 5.6016s2.5078 5.6016 5.6016 5.6016h30.895v22.477l-59.266-0.003906v-113.41c1.7852 0.26562 3.5977 0.44922 5.457 0.44922 13.16 0 24.691-6.9648 31.199-17.379 6.5078 10.414 18.039 17.379 31.199 17.379s24.695-6.9648 31.203-17.379c6.5078 10.414 18.039 17.379 31.199 17.379 13.16 0 24.691-6.9648 31.199-17.379 6.5078 10.414 18.039 17.379 31.199 17.379s24.695-6.9648 31.203-17.379c6.5078 10.414 18.039 17.379 31.199 17.379 4.8281 0 9.4297-0.96094 13.656-2.6562zm-13.656-124.15c-14.113 0-25.598-11.484-25.598-25.602l-0.003906-70.199h40.742l10.453 70.59c-0.20703 13.938-11.609 25.211-25.594 25.211zm-388.76-156.86h120.54c1.5664 0 3.0586-0.65625 4.1211-1.8086 13.766-14.961 43.949-24.629 76.898-24.629s63.133 9.6641 76.898 24.629c1.0625 1.1523 2.5547 1.8086 4.1211 1.8086h120.54l-0.003906 49.863h-403.12zm-0.75781 61.062h40.719v70.195c0 14.117-11.484 25.602-25.598 25.602-13.988 0-25.387-11.27-25.598-25.207z"/>
    <path d="m210.09 281.6c-20.426 0-37.047 16.621-37.047 37.047v39.09c0 3.0938 2.5078 5.6016 5.6016 5.6016h62.891c3.0938 0 5.6016-2.5078 5.6016-5.6016v-39.09c-0.003906-20.43-16.621-37.047-37.047-37.047zm25.844 70.531h-51.691v-33.488c0-14.25 11.594-25.844 25.844-25.844s25.844 11.594 25.844 25.844z"/>
    <path d="m359.37 409.07h-48.211c-3.0938 0-5.6016 2.5078-5.6016 5.6016v50.902c0 3.0938 2.5078 5.6016 5.6016 5.6016h48.211c3.0938 0 5.6016-2.5078 5.6016-5.6016v-50.902c-0.003906-3.0938-2.5078-5.6016-5.6016-5.6016zm-5.6016 50.898h-37.008v-39.699h37.008z"/>
    <path d="m440.74 409.07h-48.211c-3.0938 0-5.6016 2.5078-5.6016 5.6016v50.902c0 3.0938 2.5078 5.6016 5.6016 5.6016h48.211c3.0938 0 5.6016-2.5078 5.6016-5.6016v-50.902c0-3.0938-2.5078-5.6016-5.6016-5.6016zm-5.5977 50.898h-37.008v-39.699h37.008z"/>
    <path d="m522.12 409.07h-48.211c-3.0938 0-5.6016 2.5078-5.6016 5.6016v50.902c0 3.0938 2.5078 5.6016 5.6016 5.6016h48.211c3.0938 0 5.6016-2.5078 5.6016-5.6016v-50.902c0-3.0938-2.5078-5.6016-5.6016-5.6016zm-5.5977 50.898h-37.008v-39.699h37.008z"/>
  </g>
</svg>